<?xml version="1.0" encoding="UTF-8"?>
<svg width="50px" height="47px" viewBox="0 0 50 47" version="1.1" xmlns="http://www.w3.org/2000/svg" xmlns:xlink="http://www.w3.org/1999/xlink">
    <!-- Generator: Sketch 42 (36781) - http://www.bohemiancoding.com/sketch -->
    <title>logo top copy</title>
    <desc>Created with Sketch.</desc>
    <defs></defs>
    <g id="Symbols" stroke="none" stroke-width="1" fill="none" fill-rule="evenodd">
        <g id="Page-1" fill="#1B472B">
            <g id="logo-top-copy">
                <path d="M25.0150599,3.5728827 C25.834521,3.5728827 26.4985928,2.96228641 26.4985928,2.21484262 C26.4985928,1.80668524 26.297994,1.44324927 25.9932036,1.1963871 L25.4366168,0.698786901 L24.9611677,0.279001955 L24.5366168,0.698786901 L23.9803293,1.24081036 C23.7018862,1.48797067 23.534521,1.83053666 23.534521,2.21484262 C23.534521,2.96228641 24.1955988,3.5728827 25.0150599,3.5728827" id="Fill-42"></path>
                <path d="M25.0150599,41.6116896 C23.902485,41.6116896 23.0021856,42.4366505 23.0021856,43.4554042 C23.0021856,44.0033905 23.2743413,44.4977111 23.6899102,44.8343143 L24.4408084,45.510502 L25.0869162,46.0763768 L25.6641617,45.510502 L26.4207485,44.7746857 C26.7947006,44.441064 27.0249401,43.9735762 27.0249401,43.4554042 C27.0249401,42.4366505 26.1246407,41.6116896 25.0150599,41.6116896" id="Fill-44"></path>
                <path d="M13.010509,24.2703974 C13.010509,29.6879487 18.4299701,34.0959888 25.0847605,34.0959888 C31.7422455,34.0959888 37.162006,29.6879487 37.162006,24.2703974 C37.162006,18.852846 31.7422455,14.4480855 25.0847605,14.4480855 C18.4299701,14.4480855 13.010509,18.852846 13.010509,24.2703974 M36.3632036,24.2703974 C36.3632036,29.3155684 31.3027246,33.4198011 25.0847605,33.4198011 C18.866497,33.4198011 13.809012,29.3155684 13.809012,24.2703974 C13.809012,19.2282077 18.866497,15.1209936 25.0847605,15.1209936 C31.3027246,15.1209936 36.3632036,19.2282077 36.3632036,24.2703974" id="Fill-46"></path>
                <path d="M23.6374551,11.2598964 C24.1338623,11.2330635 24.6362575,11.215175 25.1569162,11.215175 C25.6652994,11.215175 26.1617066,11.2300821 26.6521257,11.2598964 C27.1937425,10.2533666 27.403024,9.02919257 27.3401497,7.22721799 C27.3072156,6.36349853 27.2802695,5.66375758 26.8467365,4.54393353 C26.4488323,4.07316618 25.913503,3.81109873 25.2314671,3.81109873 C24.4509281,3.81109873 23.8167964,4.15068328 23.3892515,4.75233529 C23.0302695,5.75290225 23.0063174,6.41716422 22.9763772,7.22721799 C22.913503,8.95465689 23.1260778,10.2414409 23.6374551,11.2598964" id="Fill-48"></path>
                <path d="M31.7344311,6.91574829 C31.4263473,8.63722434 30.5350299,10.3646632 29.3565868,11.5649858 C30.0476048,11.6928891 30.6727545,11.8419604 31.1901198,12.0265108 C31.5131737,11.6037444 31.7613772,11.2671413 32.1293413,10.7638763 C32.6467066,10.0519115 32.960479,9.66194086 33.4212575,8.91718035 C33.8398204,8.24725367 34.4050898,7.14203861 34.4050898,7.14203861 C34.8988024,5.87642278 34.7670659,4.53925269 33.7832335,4.16985386 C33.1520958,3.92537683 32.4191617,4.1191696 31.8508982,4.63436022 C31.9077844,5.38508358 31.8718563,6.14743451 31.7344311,6.91574829" id="Fill-50"></path>
                <path d="M27.3758084,11.3081359 C27.7737126,11.3409316 28.1563473,11.385653 28.5243114,11.4363372 C29.7716168,10.3403646 30.7674251,8.53839003 31.075509,6.79902542 C31.2189222,5.98599022 31.2431737,5.17891789 31.1563473,4.39539883 C30.7644311,4.01437243 30.2141317,3.75826784 29.7027545,3.68671359 C28.9249102,3.58236364 28.0994611,3.96070674 27.5791018,4.61006158 C27.9440719,5.66429423 27.977006,6.38788661 28.0069461,7.20390323 C28.0665269,8.97904497 27.8782036,10.2449589 27.3758084,11.3081359" id="Fill-52"></path>
                <path d="M19.2387425,6.80376588 C19.5558084,8.58188905 20.5366467,10.3540494 21.7959281,11.4351149 C22.1579042,11.3844306 22.5315569,11.3397092 22.9234731,11.3098949 C22.4450299,10.2318109 22.2474251,8.91551075 22.3073054,7.20596041 C22.3402395,6.37205523 22.3671856,5.63325758 22.7588024,4.5432478 C22.2354491,3.93563294 21.4369461,3.58710411 20.6863473,3.68847263 C20.1390419,3.76598974 19.5438323,4.04594575 19.1519162,4.47467498 C19.0740719,5.23136119 19.101018,6.01458211 19.2387425,6.80376588" id="Fill-54"></path>
                <path d="M16.9653593,8.91870088 C17.4288323,9.66316325 17.7429042,10.0504506 18.2572754,10.7653969 C18.6222455,11.2626989 18.8704491,11.5933392 19.190509,12.0161056 C19.6988922,11.8375181 20.2970958,11.6854653 20.9701497,11.5635249 C19.7917066,10.3810909 18.8914072,8.65067058 18.5833234,6.91726882 C18.4399102,6.12808504 18.406976,5.3418827 18.4698503,4.5762522 C17.9102695,4.10876442 17.2165569,3.93613978 16.6033832,4.16839296 C15.6225449,4.54077322 15.4908084,5.8779433 15.9842216,7.14355914 C15.9842216,7.14355914 16.546497,8.24877419 16.9653593,8.91870088" id="Fill-56"></path>
                <path d="M20.7022455,34.2697761 C20.7022455,34.2697761 20.0950599,34.037523 19.6971557,33.9152845 C18.9525449,33.6830313 18.3573353,33.632347 17.7561377,33.4537595 C15.166018,33.1708221 11.5381737,32.2146784 9.45643713,31.14852 C8.05673653,30.5826452 6.65404192,29.4836911 6.65404192,28.4533099 C6.65404192,27.8781926 6.83338323,27.1784516 7.47949102,27.0028456 C7.47949102,28.0123568 8.50553892,28.9863891 9.7255988,28.9863891 C10.6169162,28.9863891 11.3914671,28.6527674 11.7384731,28.0213011 C11.9357784,27.6280508 12.0435629,27.1933587 12.0435629,26.7345171 C12.0435629,24.9626549 10.4435629,23.6311496 8.45164671,23.6311496 C6.45374251,23.6311496 4.74865269,25.1949081 4.78458084,27.3540577 C3.67200599,26.3266579 3.20254491,25.0252649 3.20254491,23.7742581 C3.20254491,21.171174 5.03607784,19.023652 7.40763473,18.52635 C7.40763473,18.52635 8.6758982,18.2553382 9.49236527,18.1006022 C10.6229042,17.8862375 11.277994,17.8444976 12.3995509,17.6062815 C12.880988,17.5019316 13.1501497,17.4452845 13.6229042,17.3203627 C14.1043413,17.1981241 14.4513473,17.0878113 14.8459581,16.9688524 C16.1770958,16.5129922 17.3941617,15.1549521 17.3941617,13.6895806 C17.3941617,11.8372199 15.875,10.3360714 13.9995509,10.3360714 C12.9288922,10.3360714 11.9091317,10.6368974 11.2899701,11.4022297 C11.2899701,11.4022297 11.0474551,11.79548 10.9669162,12.0724545 C10.8770958,12.3702991 10.8441617,12.5459052 10.8561377,12.852694 C10.8651198,13.0909101 10.8890719,13.2310371 10.9669162,13.4573275 C11.0474551,13.7074692 11.0893713,13.880392 11.2899701,14.0589795 C11.4483533,14.2047713 11.5770958,14.2673812 11.7923653,14.3061398 L11.3229042,14.7706461 C11.0267964,14.9733832 10.8381737,15.0714721 10.4971557,15.1937107 C10.0067365,15.3693167 9.68967066,15.3633539 9.16931138,15.4050938 C8.81931138,15.4378895 8.61901198,15.4438524 8.27200599,15.440871 C8.35583832,15.1549521 8.45164671,14.8332561 8.45164671,14.5026158 C8.45164671,13.2429629 7.83847305,12.2152649 6.61811377,12.0724545 C6.88727545,12.4743509 6.97709581,12.9838768 6.97709581,13.579566 C6.97709581,14.4313597 6.71691617,15.3189306 6.22320359,15.6910127 C6.22320359,15.6910127 5.91541916,15.9709687 5.71781437,16.1498543 L5.10763473,16.5070293 C1.83877246,18.1363793 0.184580838,20.2448446 0.184580838,23.5956706 C0.184580838,26.2103822 1.47979042,29.0162033 3.48967066,30.2639306 C2.06002994,30.5319609 1.08488024,31.5059932 1.08488024,32.5304115 C1.5992515,32.3011398 2.31721557,32.2146784 3.14865269,32.2146784 C3.75883234,32.2146784 4.03697605,32.1493851 4.49745509,32.2862326 C4.97320359,32.3548055 5.23038922,32.4203969 5.68488024,32.5691701 C6.325,32.7745904 6.63907186,33.0247322 7.26422156,33.2781535 C8.10164671,33.6204213 8.58607784,33.7933441 9.45643713,34.058393 L10.8202096,34.3413304 C10.6618263,34.5020293 10.577994,34.6063793 10.4615269,34.8058368 C10.3118263,35.0470342 10.2579341,35.2020684 10.1744012,35.4760616 C10.0306886,35.9405679 9.99775449,36.2294682 10.0306886,36.7151427 L10.2100299,37.9598886 C10.569012,37.8525572 10.7663174,37.7813011 11.1073353,37.6381926 C11.5591317,37.4476794 11.7953593,37.3015894 12.2199102,37.0723177 C13.0546407,36.6227185 13.4282934,36.1939892 14.3076347,35.8305533 C14.7025449,35.6665748 15.3486527,35.4760616 15.3486527,35.4760616 C15.7582335,35.4134516 16.7363772,35.2944927 17.1848802,35.3332512 C19.2456587,35.5088573 21.0252994,36.4676843 21.0612275,38.5615406 C20.6842814,37.7723568 19.6911677,37.2124448 18.6534431,37.2124448 C17.3615269,37.2124448 16.3534431,38.0284614 16.317515,39.5534614 C16.2815868,41.1139404 17.7800898,42.6001818 19.6971557,42.6001818 C21.8597305,42.6001818 23.683982,40.8339844 23.683982,38.522782 C23.683982,36.619737 22.4639222,35.0142385 20.7022455,34.2697761" id="Fill-58"></path>
                <path d="M46.5366467,30.26402 C48.5465269,29.0189761 49.8444311,26.2104717 49.8444311,23.59576 C49.8444311,20.2419526 48.1905389,18.1364687 44.9216766,16.5041373 L44.311497,16.1499438 C44.1138922,15.9710582 43.8088024,15.6911022 43.8088024,15.6911022 C43.3123952,15.31902 43.0522156,14.4314492 43.0522156,13.5796554 C43.0522156,12.9839663 43.1420359,12.4714589 43.4111976,12.072544 C42.1878443,12.2183358 41.5776647,13.2460337 41.5776647,14.5027053 C41.5776647,14.8303641 41.670479,15.1550415 41.757006,15.4439418 C41.4102994,15.4439418 41.2097006,15.437979 40.86,15.4051833 C40.3393413,15.3604619 40.0255689,15.3723876 39.5318563,15.1938001 C39.1908383,15.0715616 38.999521,14.9764541 38.7034132,14.7707356 L38.2369461,14.3062292 C38.4522156,14.2674707 38.5779641,14.2048607 38.7393413,14.0620503 C38.9366467,13.8804814 38.9755689,13.7105401 39.0653892,13.4574169 C39.1402395,13.2281452 39.1638922,13.0909995 39.1668862,12.8527835 C39.1818563,12.5459946 39.1552096,12.3674071 39.0653892,12.072544 C38.9755689,11.7955694 38.7393413,11.4023192 38.7393413,11.4023192 C38.1201796,10.6369868 37.1004192,10.3361608 36.0267665,10.3361608 C34.1543114,10.3361608 32.6318563,11.8373094 32.6318563,13.6896701 C32.6318563,15.1550415 33.8492216,16.5130816 35.1830539,16.9689418 C35.5749701,17.0908822 35.9249701,17.1982136 36.4034132,17.3234335 C36.8791617,17.4453739 37.1453293,17.5050024 37.6267665,17.6033895 C38.7513174,17.8475684 39.4034132,17.886327 40.5369461,18.1006916 C41.3504192,18.2584091 42.6213772,18.5264394 42.6213772,18.5264394 C44.9932335,19.0237414 46.8237725,21.168282 46.8237725,23.7773289 C46.8237725,25.0253543 46.357006,26.3267473 45.2414371,27.3571285 C45.2773653,25.1920161 43.5725749,23.6342204 41.5776647,23.6342204 C39.5857485,23.6342204 37.9857485,24.9627444 37.9857485,26.7346065 C37.9857485,27.1934482 38.0932335,27.6281403 38.2875449,28.0213905 C38.6345509,28.6528568 39.4094012,28.9864785 40.3037126,28.9864785 C41.5237725,28.9864785 42.5498204,28.0094648 42.5498204,27.002935 C43.1959281,27.1785411 43.3752695,27.878282 43.3752695,28.4533993 C43.3752695,29.4837805 41.9755689,30.5797532 40.5728743,31.1515909 C38.4881437,32.2117864 34.86,33.1709115 32.2701796,33.453849 C31.671976,33.6354179 31.0767665,33.6861022 30.3318563,33.9183553 C29.9372455,34.0405938 29.3240719,34.2698656 29.3240719,34.2698656 C27.5653892,35.014328 26.3450299,36.6198265 26.3450299,38.5228715 C26.3450299,40.8340738 28.1695808,42.6032527 30.3318563,42.6032527 C32.2492216,42.6032527 33.7477246,41.1140298 33.7088024,39.5535508 C33.6758683,38.0285508 32.6677844,37.2125342 31.3728743,37.2125342 C30.3378443,37.2125342 29.3420359,37.7754277 28.9680838,38.56163 C29.004012,36.4677737 30.7836527,35.5089467 32.8444311,35.3333407 C33.2899401,35.2972654 34.2710778,35.4135411 34.6806587,35.476151 C34.6806587,35.476151 35.3237725,35.6666642 35.7213772,35.8306427 C36.5950299,36.1940787 36.9716766,36.6228079 37.8061078,37.0724071 C38.2339521,37.3016789 38.4701796,37.4507502 38.9186826,37.638282 C39.2626946,37.7813905 39.46,37.8526466 39.818982,37.959978 L39.9986228,36.7152322 C40.0282635,36.2295577 39.9956287,35.9436388 39.8519162,35.476151 C39.7710778,35.2021579 39.7171856,35.0441422 39.5677844,34.8029448 C39.448024,34.6094501 39.367485,34.5021188 39.2088024,34.3414198 L40.5728743,34.0584824 C41.4402395,33.7934335 41.9246707,33.6205108 42.7680838,33.2782429 C43.3902395,33.0221383 43.7013174,32.7746799 44.3444311,32.5692595 C44.7959281,32.4204863 45.0531138,32.3578763 45.5285629,32.2863221 C45.9893413,32.1521579 46.270479,32.2117864 46.8806587,32.2117864 C47.7091018,32.2117864 48.4267665,32.3012292 48.9411377,32.5334824 C48.9411377,31.5060826 47.9692814,30.5320503 46.5366467,30.26402" id="Fill-60"></path>
                <path d="M30.7522156,27.8992414 C31.0034132,27.5656197 31.1288623,27.0862063 31.1288623,26.4696471 C31.1288623,25.5403363 30.854012,24.9270567 30.3094012,24.6202678 C29.9833533,24.4354194 29.462994,24.3492561 28.7602994,24.3579022 L28.7602994,27.6192854 C28.7632934,27.8485572 28.7992216,28.0184985 28.8588024,28.1225503 C28.9665868,28.3073988 29.1668862,28.4025064 29.468982,28.4025064 C30.0791617,28.4025064 30.507006,28.2358446 30.7522156,27.8992414" id="Fill-62"></path>
                <path d="M30.7841617,22.1695347 C30.7841617,21.6752141 30.6943413,21.255131 30.512006,20.9155464 C30.3353593,20.5792414 29.9886527,20.4093001 29.4829641,20.4093001 C29.2108084,20.4093001 29.022485,20.4540215 28.9176946,20.5464457 C28.8102096,20.63887 28.7593114,20.7995689 28.7593114,21.0377849 L28.7593114,23.9655464 C29.5608084,23.9655464 30.0961377,23.8343636 30.3712874,23.5752776 C30.6494311,23.3072473 30.7841617,22.8397595 30.7841617,22.1695347" id="Fill-64"></path>
                <path d="M14.4614072,24.2703974 C14.4614072,28.9613749 19.2287725,32.7734277 25.0850599,32.7734277 C30.9440419,32.7734277 35.7117066,28.9613749 35.7117066,24.2703974 C35.7117066,19.5826994 30.9440419,15.7673671 25.0850599,15.7673671 C19.2287725,15.7673671 14.4614072,19.5826994 14.4614072,24.2703974 L14.4614072,24.2703974 Z M25.5515269,28.4906075 C25.8985329,28.47898 26.1497305,28.4342586 26.3024251,28.3507786 C26.5626048,28.2166144 26.6880539,27.9575283 26.6880539,27.576502 L26.6880539,21.2654169 C26.6880539,20.8811109 26.5685928,20.6279878 26.3290719,20.496805 C26.1856587,20.4166046 25.925479,20.3629389 25.5515269,20.3420689 L25.5515269,20.0114286 L29.5563174,20.0114286 C30.3281737,20.0114286 30.970988,20.1008715 31.4793713,20.2794589 C32.4395509,20.6160621 32.9212874,21.2236769 32.9212874,22.1142292 C32.9212874,22.6502898 32.7266766,23.0820005 32.3350599,23.3977336 C31.9491317,23.7134668 31.5242814,23.9129242 31.0697904,23.9964042 L31.0697904,24.1186427 C31.5482335,24.2137502 31.9700898,24.365803 32.3200898,24.5891119 C33.0138024,25.0211207 33.3578144,25.625456 33.3608084,26.3970494 C33.3608084,27.1206417 33.0287725,27.7044052 32.367994,28.157284 C31.7039222,28.6009203 30.8215868,28.8212478 29.720988,28.8212478 L25.5515269,28.8212478 L25.5515269,28.4906075 Z M24.5736826,28.8212478 L17.066497,28.8212478 L17.066497,28.4906075 C17.419491,28.47898 17.6736826,28.4342586 17.8230838,28.3507786 C18.0832635,28.2166144 18.212006,27.9575283 18.212006,27.576502 L18.212006,21.2654169 C18.212006,20.8811109 18.0892515,20.6279878 17.8440419,20.496805 C17.7003293,20.4166046 17.4401497,20.3629389 17.066497,20.3420689 L17.066497,20.0114286 L21.5976347,20.0114286 L21.5976347,20.3420689 C21.0712874,20.3599575 20.7182934,20.434195 20.5419461,20.5683592 C20.3652994,20.6965606 20.2817665,21.021238 20.2817665,21.5394101 L20.2817665,27.6954609 C20.2817665,27.9843612 20.3533234,28.1748744 20.503024,28.2702801 C20.6554192,28.3627043 20.9455389,28.4104071 21.3823653,28.4104071 C22.1629042,28.4104071 22.815,28.2374844 23.3443413,27.8949184 C23.8766766,27.5437063 24.3344611,26.8705 24.7170958,25.8669516 L25.0970359,25.8669516 L24.5736826,28.8212478 Z" id="Fill-66"></path>
                <path d="M26.8266766,11.9657493 C26.7697904,11.9657493 26.7099102,11.9508421 26.6563174,11.9210279 L26.6500299,11.915065 C26.1626048,11.8885303 25.6661976,11.8706417 25.1578144,11.8706417 C22.8338623,11.8706417 20.6506287,12.1771325 19.313503,12.6687698 C19.2745808,12.796673 19.2655988,12.9338187 19.2655988,13.0676848 C19.2655988,13.5116193 19.3374551,13.9522742 20.3422455,14.1222155 C21.5176946,13.8658128 23.5515269,13.6693368 25.2323653,13.6693368 C26.907515,13.6693368 28.872485,13.8658128 30.0449401,14.1222155 C31.0497305,13.9522742 31.1215868,13.5116193 31.1215868,13.0676848 C31.1215868,12.942763 31.1185928,12.817543 31.0856587,12.6956026 C30.0925449,12.3172595 28.6272754,12.0462478 26.9581138,11.9329536 C26.916497,11.9508421 26.8715868,11.9657493 26.8266766,11.9657493 M22.1727844,13.2525332 C21.607515,13.3208079 21.0602096,13.4162136 20.5518263,13.5295078 C20.5278743,13.5354707 20.5039222,13.5414335 20.476976,13.5414335 C20.3275749,13.5414335 20.1898503,13.4341022 20.1509281,13.2823475 C20.112006,13.1064433 20.2227844,12.9308372 20.4051198,12.8890973 C20.9347605,12.7698402 21.5027246,12.6717512 22.0919461,12.5972155 C22.2745808,12.5823084 22.4389521,12.7045469 22.4629042,12.8831344 C22.4868563,13.0647033 22.3551198,13.2286818 22.1727844,13.2525332 M28.169491,12.5733641 C28.7886527,12.641937 29.3778743,12.7400259 29.9251796,12.8563016 C30.104521,12.8950601 30.2182934,13.0706662 30.1793713,13.2465704 C30.1494311,13.4013065 30.006018,13.5056564 29.8563174,13.5056564 C29.8323653,13.5056564 29.8084132,13.502675 29.7847605,13.4967121 C29.2581138,13.3863993 28.6868563,13.2972546 28.0946407,13.2257004 C27.9123054,13.2048304 27.7835629,13.0408519 27.8018263,12.8622644 C27.822485,12.6836769 27.9602096,12.5316241 28.169491,12.5733641 M27.2871557,12.8205244 C27.2721856,12.9994101 27.1138024,13.1273133 26.9311677,13.1273133 C25.765,13.0527776 24.5087126,13.055759 23.2614072,13.1452019 L23.2374551,13.1452019 C23.0641018,13.1452019 22.9203892,13.0143172 22.9057186,12.8413944 C22.8907485,12.6598255 23.0281737,12.5018099 23.210509,12.4898842 C24.4757784,12.3977581 25.762006,12.3917952 26.9730838,12.4690142 C27.1587126,12.4809399 27.2991317,12.6359741 27.2871557,12.8205244" id="Fill-68"></path>
            </g>
        </g>
    </g>
</svg>