<?xml version="1.0" encoding="UTF-8"?>
<svg width="169px" height="131px" viewBox="0 0 169 131" version="1.1" xmlns="http://www.w3.org/2000/svg" xmlns:xlink="http://www.w3.org/1999/xlink">
    <!-- Generator: Sketch 42 (36781) - http://www.bohemiancoding.com/sketch -->
    <title>middle-logo-borrelli</title>
    <desc>Created with Sketch.</desc>
    <defs></defs>
    <g id="Symbols" stroke="none" stroke-width="1" fill="none" fill-rule="evenodd">
        <g id="Left-Menu.-Main" transform="translate(-20.000000, -8.000000)">
            <g id="middle-logo-borrelli" transform="translate(20.000000, 8.217172)">
                <g id="Group-11" transform="translate(29.228381, 69.420653)" fill="#C6C6C5">
                    <path d="M0.844288027,7.41807471 C0.709387805,7.48904285 0.481181596,7.52639449 0.163041907,7.53759999 L0.163041907,7.821099 L6.88969157,7.821099 L7.36521486,5.30621252 L7.02084457,5.30621252 C6.67647428,6.16081823 6.26465388,6.73155142 5.7891306,7.02999109 C5.31735455,7.32133395 4.72978914,7.46663186 4.0335541,7.46663186 C3.64421707,7.46663186 3.38228581,7.42928021 3.24363836,7.34710658 C3.11286009,7.26904164 3.04540998,7.10842955 3.04540998,6.86601735 L3.04540998,1.62333999 C3.04540998,1.18333757 3.12372705,0.906935374 3.27736341,0.79898911 C3.43474701,0.683199 3.74913947,0.619701198 4.22428803,0.604760538 L4.22428803,0.321261527 L0.163041907,0.321261527 L0.163041907,0.604760538 C0.499917738,0.627171527 0.731871175,0.668258341 0.863024169,0.739226473 C1.07998869,0.847546253 1.19240554,1.0638123 1.19240554,1.39213329 L1.19240554,6.75769757 C1.18865831,7.0822834 1.07249424,7.30265812 0.844288027,7.41807471" id="Fill-1"></path>
                    <path d="M30.2230082,0.807430582 C30.3725226,0.688278824 30.6756734,0.621045857 31.1249661,0.606105198 L31.1249661,0.325967835 L27.1982455,0.325967835 L27.1982455,0.606105198 C27.6063186,0.650927176 27.8648774,0.725256956 27.9769195,0.837311901 C28.0930836,0.941896516 28.1530392,1.2067197 28.1530392,1.62841981 L28.1530392,5.33743849 C28.1530392,5.97166948 28.2838175,6.49384553 28.5457488,6.90060498 C29.036261,7.66183157 29.9494605,8.04618003 31.2860969,8.04618003 C32.3042188,8.04618003 33.0529151,7.78509201 33.5318109,7.27374795 C34.0073341,6.75866871 34.2434095,6.03479377 34.2434095,5.09465278 L34.2434095,1.54624619 C34.2434095,1.18804388 34.3033652,0.960572341 34.4191545,0.863458055 C34.5428131,0.762608604 34.7860082,0.67707333 35.1566091,0.606105198 L35.1566091,0.325967835 L32.6036224,0.325967835 L32.6036224,0.606105198 C33.0529151,0.639721681 33.3485714,0.728992121 33.5022078,0.882133879 C33.6592166,1.03154047 33.7341612,1.30383399 33.7341612,1.70312311 L33.7341612,5.09465278 C33.7341612,5.71767827 33.6517222,6.20287619 33.4722299,6.549873 C33.1615847,7.18036882 32.5549084,7.49785784 31.6641922,7.49785784 C30.9454738,7.49785784 30.4624561,7.21025014 30.2042721,6.63951696 C30.0656246,6.33360696 29.994802,5.89696619 29.994802,5.33743849 L29.994802,1.62841981 C29.994802,1.19924937 30.0731191,0.926955857 30.2230082,0.807430582" id="Fill-3"></path>
                    <path d="M55.6120918,7.42517153 C55.4659499,7.49613966 55.2302492,7.53349131 54.9008678,7.54096164 L54.9008678,7.82072548 L58.9624887,7.82072548 L58.9624887,7.54096164 C58.6027548,7.54096164 58.3220874,7.48493416 58.1463424,7.38408471 C57.9627282,7.27613845 57.8727947,7.07070438 57.8727947,6.75732405 L57.8727947,1.39175977 C57.8727947,1.05970362 57.9852115,0.839702407 58.2137925,0.727647462 C58.348318,0.664149659 58.6027548,0.619327681 58.9624887,0.608122187 L58.9624887,0.324623176 L54.9008678,0.324623176 L54.9008678,0.608122187 C55.2527326,0.619327681 55.4921805,0.664149659 55.6270807,0.731382626 C55.8515397,0.843437571 55.9639565,1.06717395 55.9639565,1.39175977 L55.9639565,6.75732405 C55.9639565,7.08938021 55.8440452,7.31311658 55.6120918,7.42517153" id="Fill-5"></path>
                    <path d="M86.31512,7.34908622 L86.31512,5.93868798 C86.31512,5.55433952 86.3788228,5.29325149 86.5058539,5.1550504 C86.6407541,5.01348765 86.9101798,4.93504919 87.3070113,4.92384369 L87.3070113,4.64407985 L83.3240823,4.64407985 L83.3240823,4.92384369 C83.7546388,4.93131402 84.0390534,4.96493051 84.1777009,5.03216347 C84.3946654,5.13637457 84.4995878,5.3567493 84.4995878,5.69254062 L84.4995878,6.86426182 C84.4995878,7.0879982 84.4546211,7.2557071 84.3534459,7.37149721 C84.1814481,7.56946095 83.8483195,7.66993688 83.3578073,7.66993688 C82.4408605,7.66993688 81.8229426,7.30426424 81.5010557,6.58412446 C81.182916,5.86024952 81.0221599,5.03552512 81.0221599,4.11032479 C81.0221599,2.98342556 81.1941576,2.11051754 81.5385279,1.49122721 C81.8828982,0.871563363 82.4296188,0.558183033 83.1783151,0.558183033 C83.8708029,0.558183033 84.4845989,0.856622703 85.0271976,1.45761073 C85.3194814,1.78219655 85.6076432,2.22593413 85.8845634,2.78957051 L86.1802197,2.78957051 L86.1802197,0.19624556 L85.8583328,0.19624556 C85.8096188,0.364327978 85.7462907,0.490950066 85.6675989,0.573123692 C85.5926543,0.659032484 85.4952264,0.700119297 85.3678206,0.700119297 C85.2557785,0.700119297 84.9563749,0.614210505 84.4771044,0.442392923 C84.0015812,0.274684022 83.5264326,0.185040066 83.0434149,0.185040066 C81.8454259,0.185040066 80.8572818,0.573123692 80.0861022,1.34929095 C79.3411532,2.10304721 78.9705523,3.0319827 78.9705523,4.14020611 C78.9705523,5.23348886 79.3336588,6.14038688 80.0486299,6.86762347 C80.8198095,7.64379073 81.8491732,8.03187435 83.1408428,8.03187435 C83.8483195,8.03187435 84.4920933,7.95754457 85.0684171,7.80440281 C85.6413683,7.65126105 86.0603084,7.50222798 86.31512,7.34908622" id="Fill-7"></path>
                    <path d="M107.788275,7.42517153 C107.64588,7.49613966 107.41018,7.53349131 107.080798,7.54096164 L107.080798,7.82072548 L111.142419,7.82072548 L111.142419,7.54096164 C110.775191,7.54096164 110.502018,7.48493416 110.322525,7.38408471 C110.142659,7.27613845 110.052725,7.07070438 110.052725,6.75732405 L110.052725,1.39175977 C110.052725,1.05970362 110.165142,0.839702407 110.393723,0.727647462 C110.528248,0.664149659 110.775191,0.619327681 111.142419,0.608122187 L111.142419,0.324623176 L107.080798,0.324623176 L107.080798,0.608122187 C107.425169,0.619327681 107.668364,0.664149659 107.807011,0.731382626 C108.027723,0.843437571 108.14014,1.06717395 108.14014,1.39175977 L108.14014,6.75732405 C108.14014,7.08938021 108.023976,7.31311658 107.788275,7.42517153" id="Fill-9"></path>
                </g>
                <polygon id="Fill-12" fill="#1B472B" points="25.9237007 64.2478233 143.101031 64.2478233 143.101031 62.598748 25.9237007 62.598748"></polygon>
                <g id="Group-41" transform="translate(0.000000, 83.987796)" fill="#1B472B">
                    <path d="M16.8836246,20.4965303 C18.5192898,19.4107179 19.3354361,17.9965845 19.3354361,16.2503949 C19.3354361,14.3884152 18.4818175,12.9294598 16.774955,11.8847342 C15.9026002,11.3513527 14.8694894,10.9744746 13.6793696,10.7466295 L13.6793696,10.4556602 C14.8061612,10.2505996 15.8467665,9.76913687 16.80868,9.00791027 C17.7743408,8.23958687 18.2573585,7.20569324 18.2573585,5.90361478 C18.2573585,3.76187126 17.0743585,2.28424005 14.6974916,1.47445632 C13.4357998,1.0456594 11.8525958,0.829019835 9.94713016,0.829019835 L0.0574450111,0.829019835 L0.0574450111,1.62759808 C0.985633481,1.67989038 1.62566009,1.80277731 1.98127206,2.00074104 C2.57295942,2.31785654 2.86861574,2.93714687 2.86861574,3.85898555 L2.86861574,19.0973375 C2.86861574,20.0188027 2.55422328,20.6459369 1.9179439,20.9705227 C1.54359579,21.1681129 0.921930599,21.283903 0.0574450111,21.3100492 L0.0574450111,22.1123626 L10.3552033,22.1123626 C13.0730681,22.1123626 15.2517067,21.5711372 16.8836246,20.4965303 L16.8836246,20.4965303 Z M7.97833636,3.30281951 C7.97833636,2.72835115 8.10911463,2.33653236 8.37142062,2.1198928 C8.63335188,1.89615643 9.09351153,1.78410148 9.76014346,1.78410148 C11.0214605,1.78410148 11.8675847,2.1945961 12.3056357,3.01185016 C12.7545537,3.8328394 12.9756401,4.84394852 12.9756401,6.0377072 C12.9756401,7.664745 12.6425115,8.78790907 11.9612654,9.42587522 C11.287139,10.0601062 9.95837184,10.3734865 7.97833636,10.3734865 L7.97833636,3.30281951 Z M8.22902594,20.4180918 C8.07201707,20.1644741 7.98957805,19.7577147 7.97833636,19.2056573 L7.97833636,11.3289417 C9.71892395,11.3027955 10.9952299,11.5115913 11.8038818,11.9594375 C13.1476379,12.6982531 13.8213896,14.1870898 13.8213896,16.4222125 C13.8213896,17.918146 13.5144916,19.0711914 12.9006956,19.8809751 C12.2981412,20.6903853 11.2384251,21.0934096 9.73016563,21.0934096 C8.98896386,21.0934096 8.48720998,20.8696732 8.22902594,20.4180918 L8.22902594,20.4180918 Z" id="Fill-13"></path>
                    <path d="M42.0540574,19.665979 C44.2514322,17.5653223 45.3482459,14.8599424 45.3482459,11.5468512 C45.3482459,8.23712166 44.2514322,5.53211529 42.0540574,3.4273499 C39.9203856,1.37898551 37.2362459,0.352935725 34.0057603,0.352935725 C30.6519909,0.352935725 27.91539,1.43127781 25.7892126,3.58422682 C23.6855186,5.70729452 22.6374188,8.41640957 22.6374188,11.7145601 C22.6374188,14.7109094 23.6405519,17.2594123 25.6509399,19.3750097 C27.8067204,21.6213378 30.5920353,22.7445019 34.0057603,22.7445019 C37.2250042,22.7445019 39.9091439,21.7180786 42.0540574,19.665979 M29.0571705,17.4831487 C28.5779,15.9756362 28.3384521,13.9982399 28.3384521,11.5468512 C28.3384521,9.14028452 28.5704055,7.18119056 29.0384344,5.67367803 C29.9332725,2.83420573 31.5914211,1.41633715 34.0057603,1.41633715 C35.7463479,1.41633715 37.1204565,2.2672077 38.131084,3.96484012 C39.1529532,5.66994287 39.6622016,8.19603485 39.6622016,11.5468512 C39.6622016,13.9870344 39.4223789,15.9648042 38.9431084,17.4831487 C38.048645,20.2815342 36.4017381,21.6807269 34.0057603,21.6807269 C31.5914211,21.6807269 29.940767,20.2815342 29.0571705,17.4831487" id="Fill-15"></path>
                    <path d="M56.0263854,12.27166 L62.6668488,22.1149398 L69.210259,22.1149398 L69.210259,21.3574484 C68.9220971,21.3387726 68.6751548,21.2902155 68.4765517,21.2192473 C68.2783233,21.1370737 68.0947091,20.9731 67.9152169,20.7269526 L61.476729,11.7606894 C62.5735428,11.5589905 63.6066537,11.0849981 64.5873033,10.3461825 C65.8677313,9.36121952 66.5077579,8.01431908 66.5077579,6.301746 C66.5077579,3.9881849 65.2310772,2.3839316 62.6668488,1.49197424 C61.3455761,1.05159831 59.6162302,0.827861934 57.4825583,0.827861934 L47.1844253,0.827861934 L47.1844253,1.63017534 C48.2778665,1.72355446 48.9812213,1.89126336 49.2922412,2.13778424 C49.7636426,2.50719204 49.9959707,3.29792644 49.9959707,4.52193996 L49.9959707,18.4358025 C49.9959707,19.6037885 49.8011149,20.3646416 49.4042834,20.7120119 C49.0078266,21.0627439 48.2662501,21.2603341 47.1844253,21.3126264 L47.1844253,22.1149398 L57.9951792,22.1149398 L57.9951792,21.3126264 C56.8721348,21.2715396 56.1200661,21.0627439 55.745718,20.6783955 C55.3713698,20.2903118 55.1840084,19.5440259 55.1840084,18.4358025 L55.1840084,12.27166 L56.0263854,12.27166 Z M55.1840084,3.24189897 C55.1840084,2.76080974 55.3114142,2.42128325 55.5733455,2.21211402 C55.8427712,1.99584798 56.4082279,1.89126336 57.2614718,1.89126336 C58.8338089,1.89126336 59.9156337,2.49225138 60.5106936,3.68974523 C60.8550639,4.39867952 61.0236891,5.36123149 61.0236891,6.58150985 C61.0236891,8.56674996 60.5743965,9.84268226 59.6686914,10.3947396 C58.7738532,10.935965 57.2764608,11.2269344 55.1840084,11.2530805 L55.1840084,3.24189897 Z" id="Fill-17"></path>
                    <path d="M92.3197162,21.3584196 C92.0278071,21.3360086 91.7842373,21.2911866 91.5860089,21.2164833 C91.3874058,21.1384184 91.2004191,20.9740711 91.0246741,20.7279237 L84.5858115,11.7616605 C85.678878,11.5566 86.7161109,11.0863427 87.6967605,10.3475271 C88.9768137,9.36256418 89.6130931,8.01529022 89.6130931,6.30271714 C89.6130931,3.9857944 88.3367871,2.38490275 85.7725588,1.4933189 C84.451286,1.0492078 82.7215654,0.829206593 80.5845211,0.829206593 L70.2938825,0.829206593 L70.2938825,1.62741132 C71.386949,1.72079044 72.0869313,1.88887286 72.4013237,2.13875538 C72.8693525,2.50816319 73.1016807,3.29889758 73.1016807,4.5229111 L73.1016807,18.4367736 C73.1016807,19.6047597 72.9030776,20.3659863 72.5099933,20.7129831 C72.1131619,21.0599799 71.3757073,21.2616788 70.2938825,21.3098624 L70.2938825,22.1121758 L81.1008891,22.1121758 L81.1008891,21.3098624 C79.9778448,21.2687756 79.2291486,21.0599799 78.8548004,20.6793666 C78.4767051,20.291283 78.2897184,19.5412619 78.2897184,18.4367736 L78.2897184,12.2726311 L79.1358426,12.2726311 L85.7725588,22.1121758 L92.3197162,22.1121758 L92.3197162,21.3584196 Z M82.7740266,10.3923491 C81.875816,10.9406713 80.3821707,11.2279055 78.2897184,11.2503165 L78.2897184,3.24324363 C78.2897184,2.76178088 78.4171242,2.41851923 78.6828027,2.21345868 C78.9484812,1.99681912 79.5135632,1.88887286 80.3671818,1.88887286 C81.9395188,1.88887286 83.0250909,2.48948736 83.6164035,3.69108989 C83.9607738,4.39628901 84.1331463,5.36257615 84.1331463,6.57874582 C84.1331463,8.57145626 83.6801064,9.83991824 82.7740266,10.3923491 L82.7740266,10.3923491 Z" id="Fill-19"></path>
                    <path d="M113.212313,15.5611076 L112.321222,15.5611076 C111.321836,17.6991159 110.176309,19.1618065 108.885014,19.9417089 C107.597466,20.7178761 105.927701,21.1096949 103.88771,21.1096949 C102.805885,21.1096949 102.087167,20.9939048 101.731555,20.7552278 C101.387184,20.5087069 101.214812,20.0537638 101.214812,19.389278 L101.214812,11.7628185 C103.037839,11.7628185 104.295783,12.1284911 104.995765,12.8673067 C105.703242,13.5949168 106.171271,14.8596436 106.403224,16.6506552 L107.211502,16.6506552 L107.211502,6.00917054 L106.403224,6.00917054 C106.058854,7.79644691 105.564595,9.02382208 104.917074,9.6995134 C104.2733,10.3673609 103.037839,10.6919467 101.214812,10.6695357 L101.214812,3.38222911 C101.214812,2.78534977 101.345965,2.39353098 101.604149,2.19594076 C101.877322,1.99050669 102.498987,1.88965724 103.479637,1.88965724 C106.055107,1.88965724 107.821925,2.26280021 108.79508,3.01655647 C109.772357,3.75910724 110.464845,5.15082966 110.868796,7.17715658 L111.651218,7.17715658 L111.651218,0.826255813 L93.2193508,0.826255813 L93.2193508,1.62856922 C94.1475392,1.68086153 94.7838186,1.80412197 95.1356834,1.99797702 C95.7536013,2.31882768 96.0604993,2.93475636 96.0604993,3.85622153 L96.0604993,19.0983087 C96.0604993,19.9977364 95.7607211,20.6132915 95.1694084,20.9378774 C94.7838186,21.1545169 94.1325503,21.281139 93.2193508,21.3072852 L93.2193508,22.1095986 L111.917271,22.1095986 L113.212313,15.5611076 Z" id="Fill-21"></path>
                    <path d="M134.624463,14.9779736 L133.68878,14.9779736 C132.737734,17.3920107 131.610942,19.0265188 130.300911,19.8661839 C128.998,20.6942699 127.381071,21.1122348 125.457244,21.1122348 C124.382539,21.1122348 123.656326,21.0001799 123.285725,20.7764435 C122.918871,20.548972 122.735632,20.0899202 122.735632,19.3921914 L122.735632,4.52324726 C122.735632,3.26935243 122.948849,2.48571485 123.375658,2.16859935 C123.813709,1.85148386 124.682317,1.67219595 125.984853,1.63110913 L125.984853,0.829169242 L114.799751,0.829169242 L114.799751,1.63110913 C115.724567,1.67966627 116.364594,1.80666188 116.720206,2.00051693 C117.32276,2.31800595 117.625911,2.93729627 117.625911,3.85876144 L117.625911,19.0974869 C117.625911,20.0226873 117.307771,20.6419776 116.675239,20.9740337 C116.297144,21.1682623 115.675853,21.2836789 114.799751,21.3101986 L114.799751,22.1121385 L133.329421,22.1121385 L134.624463,14.9779736 Z" id="Fill-23"></path>
                    <path d="M145.256624,2.16699323 C145.694675,1.84614257 146.562908,1.67058982 147.865819,1.62614136 L147.865819,0.827563121 L136.684465,0.827563121 L136.684465,1.62614136 C137.605159,1.68216884 138.248932,1.80505576 138.604544,1.99928433 C139.203726,2.31639982 139.506877,2.93569015 139.506877,3.86089048 L139.506877,19.0958808 C139.506877,20.017346 139.192484,20.6444802 138.556205,20.9728011 C138.181857,21.1666562 137.556445,21.2824463 136.684465,21.3123276 L136.684465,22.1105324 L155.206265,22.1105324 L156.505054,14.9763675 L155.565624,14.9763675 C154.622447,17.3978749 153.491908,19.0249127 152.17813,19.8683129 C150.878966,20.6963989 149.262037,21.1106287 147.334088,21.1106287 C146.263504,21.1106287 145.537292,20.9989473 145.162943,20.7748374 C144.799837,20.5473659 144.616598,20.0883141 144.616598,19.3905853 L144.616598,4.51753246 C144.616598,3.26774631 144.829815,2.48784389 145.256624,2.16699323" id="Fill-25"></path>
                    <path d="M168.966537,21.31173 C167.966777,21.31173 167.214708,21.1626969 166.712954,20.8638837 C166.214947,20.5654441 165.964258,19.9760351 165.964258,19.0990184 L165.964258,3.86066637 C165.964258,2.9164167 166.27865,2.28592088 166.903688,1.96880538 C167.278411,1.78242066 167.966777,1.67036571 168.966537,1.6292789 L168.966537,0.830700659 L157.781435,0.830700659 L157.781435,1.6292789 C158.735854,1.67036571 159.402112,1.78989099 159.780207,1.98374604 C160.394378,2.30086154 160.697528,2.92426055 160.697528,3.86066637 L160.697528,19.0990184 C160.697528,20.0320625 160.379389,20.6625584 159.735615,20.9871442 C159.335036,21.1847344 158.687515,21.289319 157.781435,21.31173 L157.781435,22.1140434 L168.966537,22.1140434 L168.966537,21.31173 Z" id="Fill-27"></path>
                    <path d="M58.5662193,46.2866856 L58.9030951,46.2866856 L58.9030951,36.3279891 C58.9030951,35.3355558 59.0305009,34.7013248 59.2811905,34.4249226 C59.53188,34.1451587 60.0373812,33.9737147 60.7935718,33.8990114 L60.7935718,33.5482794 L56.1368911,33.5482794 L56.1368911,33.8990114 C56.8668512,33.958774 57.3382525,34.0928664 57.5518446,34.2945653 C57.8699843,34.6079457 58.0344876,35.2869986 58.0344876,36.3279891 L58.0344876,42.6523702 L50.3983856,33.5482794 L46.9992747,33.5482794 L46.9992747,33.8990114 C47.4073479,33.9102169 47.7104987,33.9550389 47.9091018,34.036839 C48.1148246,34.1115423 48.3655142,34.309506 48.657798,34.637827 L48.9272237,34.9400018 L48.9272237,43.2869747 C48.9272237,44.2831431 48.8110596,44.9173741 48.5791062,45.1934028 C48.346778,45.4660698 47.8229155,45.6412491 46.9992747,45.7234227 L46.9992747,46.0666844 L51.6559554,46.0666844 L51.6559554,45.7234227 C50.9409843,45.6487194 50.4804499,45.5105183 50.2709798,45.3054578 C49.9565874,44.9920774 49.7954565,44.3204948 49.7954565,43.2869747 L49.7954565,35.9137593 L58.5662193,46.2866856 Z" id="Fill-29"></path>
                    <path d="M69.7276388,45.7224889 L69.7276388,46.0657506 L74.7699093,46.0657506 L74.7699093,45.7224889 C74.3056277,45.6589911 73.9724991,45.5473097 73.7742707,45.3829624 C73.5831621,45.2077832 73.3212308,44.7674073 72.9881022,44.0510026 L68.0541266,33.3236092 L67.6689115,33.3236092 L63.5360933,42.6107231 C62.9185501,44.0024455 62.4804991,44.8566777 62.2223151,45.1704315 C61.9675035,45.4838119 61.5897829,45.6664614 61.0767874,45.7224889 L61.0767874,46.0657506 L65.0072552,46.0657506 L65.0072552,45.7224889 C64.5429736,45.6851373 64.2248339,45.6291098 64.0565834,45.5585152 C63.7871576,45.4352547 63.6522574,45.2115184 63.6522574,44.8902942 C63.6522574,44.7300556 63.7009714,44.5171512 63.7980246,44.2448577 C63.902947,43.968829 64.209845,43.2113376 64.7265878,41.9727569 L69.9146255,41.9727569 L70.7345191,43.7932763 C70.8506831,44.0510026 70.9439891,44.29715 71.007692,44.5287302 C71.0713949,44.7674073 71.1013727,44.9276458 71.1013727,45.021025 C71.1013727,45.2970536 71.0189337,45.4726064 70.8506831,45.5473097 C70.6858051,45.6141691 70.311457,45.6739318 69.7276388,45.7224889 L69.7276388,45.7224889 Z M65.0747053,41.20406 L67.3395302,35.9949991 L69.6302109,41.20406 L65.0747053,41.20406 Z" id="Fill-31"></path>
                    <path d="M80.7798266,40.5950414 C81.1167024,40.6025117 81.3861282,40.6062469 81.6030927,40.6062469 C83.085871,40.6062469 84.3247047,40.3152775 85.3091016,39.737074 C86.2938732,39.158497 86.7915051,38.2258263 86.7915051,36.938315 C86.7915051,35.9234707 86.3459596,35.0987463 85.4552435,34.479456 C84.5641525,33.8564305 83.2803521,33.5467853 81.6030927,33.5467853 L76.3738355,33.5467853 L76.3738355,33.9012525 C77.0888067,33.9535448 77.5455938,34.0876372 77.7513166,34.2930713 C77.9649086,34.501867 78.0694563,34.9385078 78.0694563,35.5988849 L78.0694563,43.792716 C78.0694563,44.5763536 77.9761503,45.0764922 77.7887889,45.3002285 C77.6055494,45.5131329 77.1337734,45.6584308 76.3738355,45.7219286 L76.3738355,46.0651903 L81.9216071,46.0651903 L81.9216071,45.7219286 C81.1279441,45.6659012 80.6149486,45.5463759 80.3829951,45.3637263 C80.1585361,45.1769681 80.0461193,44.7291218 80.0461193,44.0168259 L80.0461193,40.5763656 C80.2068754,40.5763656 80.4541925,40.5838359 80.7798266,40.5950414 L80.7798266,40.5950414 Z M80.0461193,34.87501 C80.0461193,34.6139219 80.0873388,34.4421044 80.1810195,34.3677746 C80.2780727,34.2893361 80.529137,34.2482493 80.9368355,34.2482493 C81.7904541,34.2482493 82.501678,34.3640394 83.0633876,34.5952461 C84.1114874,35.0318869 84.6316027,35.8263564 84.6316027,36.983137 C84.6316027,38.218356 84.1560794,39.0539124 83.2091548,39.5017586 C82.6849175,39.7520147 81.9703211,39.8749016 81.060494,39.8749016 C80.9593188,39.8749016 80.8510239,39.8711664 80.7423543,39.8636961 C80.6336847,39.8599609 80.397984,39.8412851 80.0461193,39.8114038 L80.0461193,34.87501 Z" id="Fill-33"></path>
                    <path d="M95.1219685,46.3337113 C96.8550616,46.3337113 98.3374652,45.7928594 99.56131,44.707047 C100.931671,43.494239 101.612918,41.8638395 101.612918,39.8076313 C101.612918,37.7928834 100.950408,36.1774246 99.6287601,34.9608814 C98.4124098,33.8414525 96.9075228,33.2781896 95.1219685,33.2781896 C93.3401614,33.2781896 91.8390217,33.8377173 90.6222967,34.9534111 C89.2935295,36.1733159 88.6272723,37.7928834 88.6272723,39.8076313 C88.6272723,41.7331088 89.2485627,43.3078543 90.4952656,44.5314943 C91.7191104,45.7330968 93.2614696,46.3337113 95.1219685,46.3337113 M92.100953,35.3975222 C92.9245938,34.4383318 93.9314741,33.9647129 95.1219685,33.9647129 C96.2712435,33.9647129 97.2631348,34.4233912 98.0980173,35.3377595 C98.9362723,36.2592247 99.3593344,37.7480614 99.3593344,39.8076313 C99.3593344,41.8488989 98.9400195,43.3340004 98.1088843,44.2629359 C97.2856182,45.1881362 96.2862324,45.6509232 95.1219685,45.6509232 C93.9277268,45.6509232 92.9208466,45.1769307 92.100953,44.2293194 C91.2814341,43.2742378 90.873361,41.8003417 90.873361,39.8076313 C90.873361,37.8190295 91.2814341,36.3451335 92.100953,35.3975222" id="Fill-35"></path>
                    <path d="M113.760795,42.7860144 C113.176977,43.9241191 112.577795,44.6330534 111.960252,44.9128172 C111.338961,45.1888459 110.148467,45.327047 108.389143,45.327047 C107.936103,45.327047 107.625458,45.3233118 107.46058,45.3195767 C107.296076,45.3121064 107.14244,45.2971657 106.996673,45.2784899 C106.742236,45.2486085 106.581105,45.1780139 106.498666,45.0547535 C106.431216,44.9352282 106.393744,44.7712545 106.393744,44.5583501 L106.393744,35.4688265 C106.393744,34.8383306 106.517402,34.4319447 106.760598,34.2414513 C107.015409,34.0475962 107.501799,33.9392765 108.231759,33.8981896 L108.231759,33.5437225 L102.631901,33.5437225 L102.631901,33.8981896 C103.365609,33.950482 103.840757,34.077104 104.054349,34.2862733 C104.267567,34.4913338 104.372489,34.9279746 104.372489,35.5995572 L104.372489,44.0174982 C104.372489,44.7301677 104.263819,45.1780139 104.043108,45.3531932 C103.829516,45.5246372 103.358114,45.6516328 102.631901,45.722601 L102.631901,46.0658626 L113.292766,46.0658626 L114.262174,42.7860144 L113.760795,42.7860144 Z" id="Fill-37"></path>
                    <path d="M119.546441,34.257774 C119.785888,34.0564486 120.310126,33.9331881 121.114656,33.8995717 L121.114656,33.5451045 L115.249119,33.5451045 L115.249119,33.8995717 C116.057771,33.9331881 116.577886,34.0564486 116.817709,34.257774 C117.057157,34.4557377 117.176693,34.9032105 117.176693,35.5972041 L117.176693,44.0151451 C117.176693,44.7464903 117.057157,45.2018069 116.817709,45.3807213 C116.577886,45.5525389 116.057771,45.6642203 115.249119,45.723983 L115.249119,46.0635095 L121.114656,46.0635095 L121.114656,45.723983 C120.310126,45.6642203 119.785888,45.5525389 119.546441,45.3807213 C119.306618,45.2018069 119.187081,44.7464903 119.187081,44.0151451 L119.187081,35.5972041 C119.187081,34.9032105 119.306618,34.4557377 119.546441,34.257774" id="Fill-39"></path>
                </g>
                <g id="Group-70" transform="translate(53.210643, 0.320104)" fill="#1B472B">
                    <path d="M31.3082055,4.47614684 C32.333822,4.47614684 33.1649572,3.71118508 33.1649572,2.77477925 C33.1649572,2.26343519 32.9138929,1.80811859 32.5324251,1.49884695 L31.8358153,0.875447934 L31.2407554,0.349536725 L30.7093984,0.875447934 L30.0131634,1.5545009 C29.6646712,1.86414607 29.4552011,2.29331651 29.4552011,2.77477925 C29.4552011,3.71118508 30.2825891,4.47614684 31.3082055,4.47614684" id="Fill-42"></path>
                    <path d="M31.3082055,52.1315835 C29.9157355,52.1315835 28.7889439,53.1651037 28.7889439,54.4414095 C28.7889439,55.1279328 29.129567,55.7472231 29.6496823,56.1689232 L30.5894871,57.0160586 L31.398139,57.7249929 L32.1206047,57.0160586 L33.0675293,56.0942199 C33.5355581,55.676255 33.82372,55.0905811 33.82372,54.4414095 C33.82372,53.1651037 32.6969284,52.1315835 31.3082055,52.1315835" id="Fill-44"></path>
                    <path d="M16.2836184,30.4062214 C16.2836184,37.1933894 23.0664765,42.7158306 31.395441,42.7158306 C39.727778,42.7158306 46.5110109,37.1933894 46.5110109,30.4062214 C46.5110109,23.6190534 39.727778,18.1007208 31.395441,18.1007208 C23.0664765,18.1007208 16.2836184,23.6190534 16.2836184,30.4062214 M45.5112503,30.4062214 C45.5112503,36.7268673 39.1776849,41.8686952 31.395441,41.8686952 C23.6128224,41.8686952 17.2830042,36.7268673 17.2830042,30.4062214 C17.2830042,24.0893106 23.6128224,18.9437475 31.395441,18.9437475 C39.1776849,18.9437475 45.5112503,24.0893106 45.5112503,30.4062214" id="Fill-46"></path>
                    <path d="M29.5840308,14.1065223 C30.2053213,14.0729058 30.8341062,14.0504949 31.4857492,14.0504949 C32.1220286,14.0504949 32.7433191,14.0691707 33.3571151,14.1065223 C34.0349887,12.8455307 34.29692,11.311872 34.2182282,9.05433837 C34.1770086,7.97226112 34.1432836,7.09561793 33.6006849,5.69269002 C33.1026783,5.10290749 32.4326738,4.77458651 31.5790552,4.77458651 C30.6021528,4.77458651 29.8084898,5.20002178 29.2733856,5.95377804 C28.8240929,7.20729936 28.7941151,8.03949409 28.7566428,9.05433837 C28.677951,11.2184929 28.9440042,12.83059 29.5840308,14.1065223" id="Fill-48"></path>
                    <path d="M39.7179978,8.6641257 C39.332408,10.8208099 38.2168581,12.9849644 36.741949,14.4887417 C37.6068093,14.6489803 38.3892306,14.8357386 39.0367517,15.0669453 C39.4410776,14.5372989 39.7517228,14.1155988 40.2122572,13.485103 C40.8597783,12.5931456 41.2524878,12.104586 41.8291863,11.1715419 C42.3530488,10.3322503 43.0605255,8.94762471 43.0605255,8.94762471 C43.6784435,7.36204724 43.5135654,5.68682581 42.2822262,5.22403889 C41.4923104,4.91775537 40.5749889,5.16054109 39.863765,5.80597757 C39.9349623,6.74649208 39.8899956,7.70157373 39.7179978,8.6641257" id="Fill-50"></path>
                    <path d="M34.2628576,14.1669573 C34.7608643,14.2080441 35.2397601,14.2640716 35.7002945,14.3275694 C37.2613898,12.9545228 38.507718,10.6969892 38.8933078,8.517894 C39.0728,7.49931455 39.1031525,6.48820543 38.9944829,5.50660411 C38.5039707,5.02925004 37.8152302,4.70839938 37.1752035,4.61875543 C36.2016736,4.48802466 35.1685627,4.96201708 34.5172945,5.77553598 C34.9740816,7.09629026 35.0153011,8.00281477 35.0527734,9.02512938 C35.1273432,11.2490465 34.8916426,12.8349975 34.2628576,14.1669573" id="Fill-52"></path>
                    <path d="M24.0787153,8.52383291 C24.4755468,10.7514852 25.7031388,12.9716672 27.2792231,14.326038 C27.732263,14.2625402 28.1999171,14.2065127 28.6904293,14.169161 C28.0916222,12.8185254 27.8443051,11.1694502 27.9192497,9.02770665 C27.9604692,7.98298104 27.9941942,7.0574072 28.4843317,5.69183093 C27.8293162,4.93060434 26.8299304,4.49396357 25.8905002,4.62095918 C25.2055069,4.71807346 24.4605579,5.06880544 23.9700457,5.60592214 C23.8726177,6.55390698 23.9063428,7.53513478 24.0787153,8.52383291" id="Fill-54"></path>
                    <path d="M21.2334073,11.1734468 C21.8134783,12.1061175 22.2065625,12.5913154 22.8503364,13.4870079 C23.3071235,14.1100334 23.6177687,14.5242632 24.0183475,15.0539095 C24.6546268,14.8301732 25.4033231,14.6396798 26.2457,14.4869115 C24.7707909,13.0055451 23.6439993,10.8376555 23.2584095,8.66603064 C23.0789173,7.67733251 23.0376978,6.69236954 23.1163896,5.73317921 C22.4160326,5.14750536 21.5477998,4.93123932 20.7803674,5.22220866 C19.5527754,5.68873075 19.3878973,7.36395218 20.0054406,8.94952965 C20.0054406,8.94952965 20.7091701,10.3341553 21.2334073,11.1734468" id="Fill-56"></path>
                    <path d="M25.910398,42.9335534 C25.910398,42.9335534 25.1504601,42.642584 24.6524534,42.4894423 C23.7205177,42.1984729 22.9755687,42.1349751 22.2231253,41.9112388 C18.981398,41.5567716 14.4408814,40.3589043 11.8354335,39.0232093 C10.0836042,38.314275 8.32802772,36.9374933 8.32802772,35.6466203 C8.32802772,34.926107 8.5524867,34.0494638 9.36113858,33.8294626 C9.36113858,35.0941894 10.6453137,36.3144678 12.1723093,36.3144678 C13.2878592,36.3144678 14.2572672,35.8965028 14.691571,35.1053949 C14.9385133,34.6127267 15.0734135,34.0681396 15.0734135,33.4932978 C15.0734135,31.2734893 13.0708947,29.6053647 10.5778636,29.6053647 C8.07733814,29.6053647 5.94329157,31.5644587 5.98825831,34.269465 C4.59578825,32.9823272 4.00822284,31.3519278 4.00822284,29.7846526 C4.00822284,26.5234802 6.3030255,23.833041 9.2712051,23.2100155 C9.2712051,23.2100155 10.858531,22.870489 11.8804002,22.6766339 C13.2953537,22.4080756 14.1152472,22.3557833 15.518959,22.0573436 C16.1215133,21.9266128 16.4583891,21.8556447 17.0500765,21.6991413 C17.6526308,21.5459995 18.0869346,21.4077984 18.5808193,21.2587654 C20.246837,20.6876587 21.7700854,18.9862911 21.7700854,17.1504576 C21.7700854,14.8297996 19.8687417,12.9491442 17.5214778,12.9491442 C16.181469,12.9491442 14.905163,13.3260223 14.1302361,14.2848391 C14.1302361,14.2848391 13.8267106,14.7775073 13.7259102,15.1245042 C13.6134933,15.4976471 13.5722738,15.7176483 13.5872627,16.1019968 C13.5985044,16.4004365 13.6284823,16.5759892 13.7259102,16.8594882 C13.8267106,17.1728685 13.8791718,17.3895081 14.1302361,17.6132445 C14.3284645,17.795894 14.4895953,17.8743325 14.7590211,17.9228896 L14.1714557,18.5048283 C13.8008548,18.7588195 13.5647794,18.8817065 13.1379701,19.0348482 C12.5241741,19.2548494 12.1273426,19.2473791 11.4760743,19.2996714 C11.0380233,19.3407582 10.7873337,19.3482285 10.3530299,19.3444934 C10.4579523,18.9862911 10.5778636,18.5832668 10.5778636,18.169037 C10.5778636,16.5909299 9.81043126,15.3034185 8.28306098,15.1245042 C8.61993681,15.6280044 8.73235366,16.266344 8.73235366,17.01263 C8.73235366,18.0797666 8.40671951,19.1917251 7.78880155,19.6578737 C7.78880155,19.6578737 7.40358647,20.0086057 7.1562694,20.2327156 L6.39258426,20.6801883 C2.30136031,22.7214559 0.23101663,25.3629645 0.23101663,29.5609162 C0.23101663,32.8366558 1.85206763,36.3518194 4.36758204,37.9149859 C2.57828049,38.2507772 1.3578082,39.4710556 1.3578082,40.7544582 C2.00158204,40.467224 2.90016741,40.3589043 3.94077273,40.3589043 C4.70445787,40.3589043 5.05257539,40.2771042 5.62889911,40.4485482 C6.2243337,40.534457 6.54622062,40.6166306 7.11504989,40.8030154 C7.91620732,41.0603682 8.30929157,41.3737485 9.09171286,41.6912376 C10.1398126,42.1200345 10.7461142,42.336674 11.8354335,42.6687302 L13.542296,43.0231973 C13.3440676,43.2245227 13.2391452,43.3552535 13.093378,43.605136 C12.9060166,43.9073109 12.8385665,44.1015394 12.7340188,44.4448011 C12.5541519,45.0267398 12.5129324,45.3886772 12.5541519,45.9971356 L12.7786109,47.5565669 C13.2279035,47.422101 13.4748459,47.3328305 13.9016552,47.1535426 C14.467112,46.9148656 14.7627683,46.7318425 15.2941253,46.4446083 C16.3388525,45.8813455 16.8065067,45.3442288 17.9070676,44.8889122 C18.4013271,44.6834781 19.2099789,44.4448011 19.2099789,44.4448011 C19.7225998,44.3663626 20.9468193,44.2173295 21.5081541,44.2658867 C24.0873714,44.4858879 26.3147239,45.6871169 26.3596907,48.3103232 C25.8879146,47.321625 24.644959,46.6201611 23.3461696,46.6201611 C21.7292406,46.6201611 20.4675488,47.6424757 20.422582,49.5530125 C20.3776153,51.5079978 22.2531031,53.3699775 24.6524534,53.3699775 C27.3590765,53.3699775 29.6422627,51.1572658 29.6422627,48.261766 C29.6422627,45.8776103 28.1152672,43.866224 25.910398,42.9335534" id="Fill-58"></path>
                    <path d="M58.2440701,37.915098 C60.7595845,36.3552931 62.384008,32.8367679 62.384008,29.5610283 C62.384008,25.3593414 60.314039,22.721568 56.2228151,20.6765652 L55.4591299,20.2328276 C55.2118129,20.0087177 54.8299703,19.6579858 54.8299703,19.6579858 C54.2086798,19.1918372 53.8830457,18.0798786 53.8830457,17.012742 C53.8830457,16.2664561 53.9954625,15.6243813 54.3323384,15.1246162 C52.8012208,15.3072658 52.0375357,16.5947771 52.0375357,18.1691491 C52.0375357,18.5796437 52.1536998,18.9864031 52.2619947,19.3483406 C51.8280656,19.3483406 51.5770013,19.3408703 51.1393251,19.2997835 C50.487682,19.243756 50.0949725,19.2586966 49.4770545,19.0349603 C49.0502452,18.8818185 48.8107973,18.7626668 48.4401965,18.5049404 L47.8563783,17.9230017 C48.125804,17.8744446 48.2831876,17.7960061 48.4851632,17.6170917 C48.7321055,17.3896202 48.7808195,17.1767158 48.8932364,16.8596003 C48.9869171,16.5723661 49.0165202,16.4005485 49.0202674,16.1021088 C49.0390035,15.7177604 49.0056532,15.494024 48.8932364,15.1246162 C48.7808195,14.7776194 48.4851632,14.2849512 48.4851632,14.2849512 C47.7102364,13.3261343 46.4339304,12.9492562 45.0901743,12.9492562 C42.7466576,12.9492562 40.841192,14.8299117 40.841192,17.1505696 C40.841192,18.9864031 42.3648151,20.6877707 44.0342053,21.2588774 C44.5247175,21.4116457 44.9627685,21.5461116 45.5615756,21.7029885 C46.1570102,21.8557568 46.4901388,21.9304601 47.0926931,22.0537205 C48.5001521,22.3596305 49.3162984,22.4081876 50.7349991,22.676746 C51.7531211,22.8743362 53.3438195,23.2101275 53.3438195,23.2101275 C56.3123738,23.833153 58.6034293,26.5198571 58.6034293,29.7884998 C58.6034293,31.3520398 58.0192364,32.9824393 56.6230191,34.2733123 C56.6679858,31.5608355 54.534314,29.6092119 52.0375357,29.6092119 C49.5445047,29.6092119 47.5419858,31.2736014 47.5419858,33.4934098 C47.5419858,34.0682517 47.6765113,34.6128387 47.9197064,35.105507 C48.3540102,35.8966149 49.3237929,36.3145798 50.44309,36.3145798 C51.9700856,36.3145798 53.2542608,35.0905663 53.2542608,33.8295747 C54.0629126,34.0495759 54.2873716,34.9262191 54.2873716,35.6467324 C54.2873716,36.9376053 52.5355424,38.3106519 50.7799659,39.0270565 C48.1707707,40.3552812 43.6298794,41.5568837 40.3885268,41.9113508 C39.6398306,42.1388224 38.8948816,42.2023202 37.9625712,42.4932895 C37.4686865,42.6464313 36.7012541,42.9336654 36.7012541,42.9336654 C34.5001322,43.8663361 32.9727619,45.8777224 32.9727619,48.2618781 C32.9727619,51.1573779 35.2563228,53.3738247 37.9625712,53.3738247 C40.3622962,53.3738247 42.237784,51.5081098 42.1890701,49.5531246 C42.1478506,47.6425877 40.8861588,46.6202731 39.2654825,46.6202731 C37.9700656,46.6202731 36.7237375,47.3254723 36.2557086,48.3104352 C36.3006754,45.687229 38.5280279,44.4859999 41.1072452,44.2659987 C41.6648328,44.2208032 42.8927996,44.3664747 43.4054204,44.4449131 C43.4054204,44.4449131 44.2103251,44.6835902 44.707957,44.8890242 C45.8013982,45.3443408 46.2727996,45.8814575 47.3171521,46.4447204 C47.852631,46.7319546 48.1482874,46.9187128 48.7096222,47.1536547 C49.1401787,47.3329426 49.3871211,47.422213 49.8364137,47.556679 L50.0612475,45.9972476 C50.098345,45.3887893 50.0575002,45.030587 49.8776333,44.4449131 C49.7764581,44.1016515 49.709008,43.9036877 49.5220213,43.6015129 C49.3721322,43.3591007 49.2713317,43.2246348 49.0727286,43.0233094 L50.7799659,42.6688423 C51.8655379,42.3367861 52.4718395,42.1201465 53.5274337,41.6913496 C54.3061078,41.370499 54.6954448,41.0604803 55.5003494,40.8031274 C56.0654315,40.6167427 56.3873184,40.5383042 56.9823783,40.4486603 C57.5590767,40.2805779 57.9109415,40.3552812 58.6746266,40.3552812 C59.7114847,40.3552812 60.6096953,40.4673361 61.2534692,40.7583054 C61.2534692,39.4711676 60.0371188,38.2508893 58.2440701,37.915098" id="Fill-60"></path>
                    <path d="M38.488682,34.9524773 C38.8030745,34.5345123 38.9600834,33.9338978 38.9600834,33.1614657 C38.9600834,31.9972149 38.6160878,31.2288915 37.934467,30.844543 C37.5263938,30.6129628 36.8751255,30.5050165 35.995651,30.5158485 L35.995651,34.6017453 C35.9993982,34.8889795 36.044365,35.1018839 36.1189348,35.2322411 C36.253835,35.4638213 36.5045246,35.5829731 36.88262,35.5829731 C37.6463051,35.5829731 38.181784,35.3741774 38.488682,34.9524773" id="Fill-62"></path>
                    <path d="M38.528665,27.7742375 C38.528665,27.1549472 38.4162481,26.6286624 38.1880419,26.2032272 C37.9669554,25.7819006 37.5330264,25.5689962 36.9001195,25.5689962 C36.5594965,25.5689962 36.3237958,25.6250236 36.1926428,25.7408138 C36.0581173,25.8566039 35.9944144,26.0579293 35.9944144,26.3563689 L35.9944144,30.0243008 C36.9975475,30.0243008 37.6675519,29.8599535 38.0119222,29.5353677 C38.3600397,29.1995764 38.528665,28.6139025 38.528665,27.7742375" id="Fill-64"></path>
                    <path d="M18.0995253,30.4062214 C18.0995253,36.2831297 24.066237,41.0589115 31.3958157,41.0589115 C38.728767,41.0589115 44.6958534,36.2831297 44.6958534,30.4062214 C44.6958534,24.5334217 38.728767,19.7535313 31.3958157,19.7535313 C24.066237,19.7535313 18.0995253,24.5334217 18.0995253,30.4062214 L18.0995253,30.4062214 Z M31.9796339,35.6933472 C32.4139377,35.6787801 32.7283302,35.6227526 32.9194388,35.518168 C33.2450729,35.3500856 33.4020818,35.0254997 33.4020818,34.5481457 L33.4020818,26.6415488 C33.4020818,26.160086 33.2525674,25.8429705 32.9527891,25.6786233 C32.7732969,25.5781473 32.4476627,25.5109144 31.9796339,25.4847682 L31.9796339,25.0705384 L36.9919266,25.0705384 C37.9579621,25.0705384 38.762492,25.1825934 39.3987714,25.4063297 C40.6005075,25.8280299 41.2034366,26.5892565 41.2034366,27.7049502 C41.2034366,28.3765328 40.9598667,28.9173847 40.4697293,29.3129386 C39.9867115,29.7084926 39.4549798,29.9583751 38.8861506,30.0629597 L38.8861506,30.2161015 C39.4849576,30.3352533 40.0129421,30.5257467 40.4509931,30.8055105 C41.3192259,31.3467359 41.7497825,32.1038538 41.7535297,33.0705145 C41.7535297,33.977039 41.3379621,34.7083843 40.5109488,35.2757558 C39.6798135,35.8315483 38.5755053,36.107577 37.1980242,36.107577 L31.9796339,36.107577 L31.9796339,35.6933472 Z M30.7557891,36.107577 L21.3599887,36.107577 L21.3599887,35.6933472 C21.8017869,35.6787801 22.1199266,35.6227526 22.3069133,35.518168 C22.6325475,35.3500856 22.7936783,35.0254997 22.7936783,34.5481457 L22.7936783,26.6415488 C22.7936783,26.160086 22.6400419,25.8429705 22.3331439,25.6786233 C22.1532769,25.5781473 21.8276428,25.5109144 21.3599887,25.4847682 L21.3599887,25.0705384 L27.0310441,25.0705384 L27.0310441,25.4847682 C26.3722814,25.5071792 25.9304831,25.6001848 25.7097714,25.7682672 C25.4886849,25.9288793 25.3841373,26.3356388 25.3841373,26.9848104 L25.3841373,34.6971788 C25.3841373,35.0591162 25.473696,35.2977933 25.6610574,35.4173185 C25.8517914,35.5331086 26.2148978,35.5928713 26.7616184,35.5928713 C27.7385208,35.5928713 28.5546672,35.3762317 29.2171772,34.9470613 C29.8834344,34.5070589 30.4563856,33.6636586 30.9352814,32.4064022 L31.4108047,32.4064022 L30.7557891,36.107577 Z" id="Fill-66"></path>
                    <path d="M33.5755785,14.9908226 C33.5043812,14.9908226 33.4294366,14.9721468 33.3623612,14.9347951 L33.354492,14.9273248 C32.7444432,14.8940818 32.1231528,14.8716708 31.4868734,14.8716708 C28.5782747,14.8716708 25.8457958,15.2556458 24.1722836,15.8715745 C24.1235696,16.031813 24.1123279,16.2036306 24.1123279,16.3713395 C24.1123279,16.9275056 24.2022614,17.4795629 25.4598313,17.6924673 C26.9309931,17.3712432 29.4764854,17.1250958 31.5801794,17.1250958 C33.6767537,17.1250958 36.1360596,17.3712432 37.6034743,17.6924673 C38.8610441,17.4795629 38.9509776,16.9275056 38.9509776,16.3713395 C38.9509776,16.2148361 38.9472304,16.0579592 38.9060109,15.905191 C37.6630552,15.4311985 35.8291616,15.0916721 33.7400818,14.9497358 C33.6879953,14.9721468 33.6317869,14.9908226 33.5755785,14.9908226 M27.7508867,16.6029197 C27.04341,16.688455 26.3584166,16.8079803 25.7221373,16.9499166 C25.6921594,16.9573869 25.6621816,16.9648572 25.6284565,16.9648572 C25.4414698,16.9648572 25.2690973,16.8303913 25.2203834,16.6402714 C25.1716694,16.4198967 25.3103169,16.1998955 25.5385231,16.1476032 C26.2014078,15.9981966 26.912257,15.8753096 27.6497115,15.7819305 C27.8782925,15.7632547 28.0840153,15.9163965 28.1139931,16.1401328 C28.143971,16.3676044 27.9790929,16.5730384 27.7508867,16.6029197 M35.2562104,15.7520492 C36.0311373,15.837958 36.7685918,15.9608449 37.4535851,16.1065163 C37.6780441,16.1550735 37.8204388,16.3750747 37.7717248,16.5954494 C37.7342525,16.7893045 37.5547603,16.9200352 37.3673989,16.9200352 C37.3374211,16.9200352 37.3074432,16.9163001 37.2778401,16.9088297 C36.6187027,16.7706286 35.9037315,16.6589472 35.1625297,16.5693033 C34.9343235,16.5431571 34.7731927,16.337723 34.7960508,16.1139867 C34.8219067,15.8902503 34.9942792,15.6997569 35.2562104,15.7520492 M34.1519022,16.0616944 C34.1331661,16.2858043 33.9349377,16.4460428 33.7063568,16.4460428 C32.2468113,16.3526637 30.6744743,16.3563989 29.1133789,16.4684538 L29.0834011,16.4684538 C28.8664366,16.4684538 28.6865696,16.3044801 28.6682082,16.0878405 C28.6494721,15.860369 28.8214698,15.6624052 29.0496761,15.6474646 C30.6332548,15.532048 32.2430641,15.5245777 33.758818,15.6213184 C33.9911461,15.6362591 34.1668911,15.8304877 34.1519022,16.0616944" id="Fill-68"></path>
                </g>
            </g>
        </g>
    </g>
</svg>